<?xml version="1.0" standalone="no"?>
<!DOCTYPE svg PUBLIC "-//W3C//DTD SVG 20010904//EN"
 "http://www.w3.org/TR/2001/REC-SVG-20010904/DTD/svg10.dtd">
<svg version="1.0" xmlns="http://www.w3.org/2000/svg"
 width="768.000000pt" height="1024.000000pt" viewBox="0 0 768.000000 1024.000000"
 preserveAspectRatio="xMidYMid meet">

<g transform="translate(0.000000,1024.000000) scale(0.100000,-0.100000)"
fill="#000000" stroke="none">
<path d="M4723 6473 c-29 -6 -63 -49 -63 -79 0 -12 11 -36 24 -51 l24 -28 219
-3 c240 -4 275 0 304 29 39 39 13 128 -38 129 -221 5 -453 7 -470 3z"/>
<path d="M2658 5631 c-72 -24 -113 -49 -164 -103 -56 -59 -81 -103 -100 -179
-57 -222 86 -445 314 -489 117 -23 258 10 333 77 48 43 50 72 8 107 -38 32
-42 32 -83 1 -52 -40 -100 -55 -175 -55 -96 0 -161 34 -216 114 -36 52 -40 64
-43 132 -6 117 35 198 129 248 94 51 192 46 290 -15 25 -16 52 -29 59 -29 22
0 70 52 70 75 0 30 -45 69 -114 101 -80 37 -222 44 -308 15z"/>
<path d="M3229 5635 c-15 -8 -29 -25 -32 -37 -11 -44 -8 -663 4 -696 18 -51
83 -61 119 -17 11 14 16 54 18 162 l4 143 184 0 184 0 0 -145 c0 -132 2 -147
20 -165 26 -26 81 -26 103 -2 15 17 17 57 17 373 0 195 -4 359 -8 365 -27 41
-105 33 -123 -13 -5 -13 -9 -83 -9 -154 l0 -129 -185 0 -185 0 0 128 c0 151
-4 168 -41 187 -34 18 -37 18 -70 0z"/>
<path d="M4190 5478 c-40 -90 -113 -251 -161 -358 -49 -107 -89 -202 -89 -211
0 -44 79 -65 118 -31 11 9 34 49 50 87 l29 70 194 3 194 2 29 -71 c36 -90 54
-109 106 -109 31 0 43 5 56 25 16 24 14 29 -46 162 -106 234 -170 374 -223
486 l-50 107 -67 0 -67 0 -73 -162z m212 -155 l65 -148 -130 -3 c-71 -1 -132
-1 -134 2 -3 2 20 60 50 128 30 67 57 133 61 146 4 12 11 22 15 22 5 0 37 -66
73 -147z"/>
<path d="M4677 5628 c-27 -22 -31 -61 -7 -91 21 -26 24 -27 131 -27 80 0 109
-3 109 -12 0 -7 0 -140 0 -296 -1 -329 2 -341 78 -342 19 0 40 8 52 20 19 19
20 33 20 325 l0 305 110 0 c97 0 112 2 130 20 11 11 20 31 20 45 0 14 -9 34
-20 45 -19 19 -33 20 -313 20 -219 0 -297 -3 -310 -12z"/>
</g>
</svg>
